<svg xmlns="http://www.w3.org/2000/svg" width="33" height="32" viewBox="0 0 33 32" fill="none"><g transform="translate(-118.633,-210.135) scale(0.36488)"><path d="M378.95 626.072C378.886 626.072 378.829 626.117 378.815 626.18C377.669 631.105 375.4 635.6 372.236 639.207C369.155 642.706 365.266 645.141 361.02 646.232C356.775 647.322 352.344 647.024 348.241 645.37C344.138 643.716 340.529 640.775 337.833 636.886C335.137 632.998 333.463 628.32 333.004 623.394C332.545 618.469 333.321 613.496 335.241 609.051C337.161 604.605 340.147 600.869 343.854 598.273C347.561 595.677 351.838 594.328 356.191 594.382C359.397 594.421 362.547 595.22 365.445 596.711C367.243 597.636 367.707 599.9 366.718 601.662L366.279 602.443C365.101 604.54 362.343 605.062 360.053 604.327C358.741 603.907 357.377 603.693 356 603.7C353.552 603.7 351.141 604.387 348.982 605.7C346.823 607.013 344.981 608.912 343.62 611.228C342.26 613.545 341.422 616.207 341.181 618.979C340.94 621.752 341.304 624.549 342.24 627.124C343.176 629.698 344.655 631.971 346.547 633.739C348.439 635.508 350.684 636.719 353.086 637.264C355.486 637.81 357.969 637.673 360.312 636.866C362.656 636.059 364.788 634.608 366.521 632.639C368.064 630.909 369.249 628.809 369.988 626.492C370.374 625.284 370.634 624.032 370.765 622.763C370.972 620.76 372.287 618.963 374.213 618.376C382.28 615.916 384.998 611.546 385.936 600.815C385.921 599.922 386.122 599.042 386.516 598.27C386.909 597.498 387.481 596.864 388.17 596.435C388.858 596.007 389.636 595.802 390.42 595.841C391.204 595.88 391.963 596.163 392.615 596.659C410.829 612.848 409.689 636.819 404.456 659.53C404.05 661.293 402.47 662.526 400.661 662.526C398.091 662.526 396.216 660.102 396.792 657.597C399.79 644.561 401.626 629.461 396.846 617.145C395.616 613.974 391.35 614.646 389.603 617.565C387.116 621.721 383.6 624.572 378.993 626.065C378.979 626.07 378.965 626.072 378.95 626.072ZM381.735 576.892C383.297 576.901 384.823 577.436 386.119 578.43C387.415 579.424 388.422 580.833 389.015 582.478C389.608 584.123 389.76 585.932 389.45 587.675C389.141 589.418 388.384 591.018 387.277 592.272C386.169 593.527 384.759 594.379 383.226 594.723C381.693 595.067 380.104 594.886 378.661 594.204C377.218 593.521 375.985 592.368 375.118 590.889C374.25 589.409 373.787 587.671 373.787 585.893C373.79 584.708 373.998 583.535 374.398 582.442C374.799 581.348 375.385 580.355 376.123 579.519C376.861 578.684 377.736 578.021 378.699 577.571C379.662 577.12 380.694 576.889 381.735 576.892ZM395.073 632.343C396.565 633.768 396.712 636.086 395.563 637.799C391.425 643.969 388.671 651.195 387.542 658.85C387.237 660.916 385.516 662.526 383.428 662.526H383.199C380.882 662.526 379.039 660.561 379.349 658.265C380.613 648.91 383.889 640.054 388.882 632.488C390.187 630.512 392.949 630.314 394.662 631.95L395.073 632.343ZM343.663 650.145C344.741 650.145 345.794 650.509 346.691 651.19C347.587 651.872 348.285 652.84 348.698 653.974C349.11 655.107 349.218 656.353 349.008 657.556C348.798 658.759 348.279 659.864 347.517 660.732C346.754 661.599 345.783 662.189 344.726 662.429C343.669 662.668 342.573 662.545 341.577 662.076C340.582 661.606 339.731 660.812 339.132 659.792C338.533 658.772 338.213 657.573 338.213 656.346C338.211 655.531 338.35 654.724 338.623 653.97C338.896 653.217 339.297 652.532 339.804 651.955C340.31 651.379 340.912 650.922 341.575 650.612C342.237 650.301 342.947 650.142 343.663 650.145ZM368.149 650.145C369.226 650.145 370.28 650.509 371.176 651.19C372.073 651.872 372.771 652.84 373.184 653.974C373.596 655.107 373.704 656.353 373.494 657.556C373.283 658.759 372.764 659.864 372.002 660.732C371.24 661.599 370.269 662.189 369.212 662.429C368.155 662.668 367.059 662.545 366.063 662.076C365.067 661.606 364.216 660.812 363.617 659.792C363.019 658.772 362.699 657.573 362.699 656.346C362.699 654.702 363.273 653.125 364.295 651.962C365.317 650.799 366.703 650.145 368.149 650.145Z" fill="#FF640F"></path></g></svg>
