<svg xmlns="http://www.w3.org/2000/svg" width="24" height="27" viewBox="0 0 24 27" fill="none"><g transform="translate(-53.697,-214.609) scale(0.28391)"><path fill-rule="evenodd" clip-rule="evenodd" d="M211.785 774.263H251.135C252.872 774.269 254.537 775.057 255.766 776.455C256.995 777.853 257.687 779.748 257.692 781.725V813.715C257.692 813.947 257.672 814.179 257.632 814.408L255.506 826.503C254.799 830.527 252.555 833.965 248.948 833.965H213.971C210.365 833.965 208.121 830.527 207.413 826.503L205.288 814.408C205.247 814.179 205.227 813.947 205.227 813.715V781.725C205.232 779.748 205.925 777.853 207.153 776.455C208.382 775.057 210.047 774.269 211.785 774.263ZM260.889 799.797C260.889 798.06 262.297 796.651 264.035 796.651C265.772 796.651 267.18 798.06 267.18 799.797V810.918C267.18 812.656 265.772 814.064 264.035 814.064C262.297 814.064 260.889 812.656 260.889 810.918V799.797ZM195.739 799.797C195.739 798.06 197.147 796.651 198.885 796.651C200.622 796.651 202.031 798.06 202.031 799.797V810.918C202.031 812.655 200.622 814.064 198.885 814.064C197.147 814.064 195.739 812.655 195.739 810.918V799.797ZM231.644 848.79C230.488 847.475 230.488 845.507 231.644 844.192L236.282 838.914C237.669 837.336 240.127 837.335 241.514 838.914C242.67 840.229 242.67 842.197 241.514 843.512L236.876 848.79C235.489 850.369 233.031 850.369 231.644 848.79ZM215.214 848.79C214.058 847.475 214.058 845.507 215.213 844.192L219.851 838.914C221.238 837.336 223.696 837.335 225.084 838.914C226.24 840.229 226.24 842.197 225.084 843.513L220.446 848.79C219.059 850.369 216.601 850.369 215.214 848.79ZM213.971 760.37C213.971 758.426 215.547 756.851 217.491 756.851H245.428C247.372 756.851 248.948 758.426 248.948 760.37C248.948 762.314 247.372 763.89 245.428 763.89H239.091C237.941 763.89 236.846 764.385 236.087 765.249L232.043 769.851C230.656 771.429 228.198 771.429 226.81 769.851L225.705 768.593C225.182 767.998 225.182 767.106 225.705 766.51C226.601 765.49 225.877 763.89 224.52 763.89H217.491C215.547 763.89 213.971 762.314 213.971 760.37ZM242.39 819.039C243.255 819.039 244.1 819.331 244.819 819.878C245.538 820.424 246.099 821.201 246.429 822.11C246.76 823.019 246.847 824.02 246.678 824.985C246.509 825.95 246.093 826.836 245.482 827.532C244.87 828.228 244.092 828.702 243.243 828.894C242.395 829.086 241.516 828.987 240.717 828.611C239.919 828.234 239.236 827.597 238.755 826.778C238.275 825.96 238.018 824.999 238.018 824.015C238.018 822.695 238.479 821.43 239.299 820.497C240.119 819.564 241.23 819.04 242.39 819.039ZM220.529 819.039C221.394 819.04 222.239 819.331 222.958 819.878C223.677 820.425 224.237 821.202 224.568 822.11C224.899 823.02 224.986 824.02 224.817 824.985C224.648 825.95 224.232 826.837 223.621 827.532C223.009 828.228 222.23 828.702 221.382 828.894C220.534 829.086 219.655 828.987 218.856 828.611C218.057 828.234 217.374 827.597 216.894 826.778C216.413 825.96 216.157 824.999 216.157 824.015C216.157 822.695 216.618 821.43 217.438 820.497C218.257 819.564 219.37 819.04 220.529 819.039ZM211.785 785.514C211.785 783.305 213.575 781.514 215.785 781.514H247.135C249.344 781.514 251.135 783.305 251.135 785.514V785.611C251.135 787.821 249.344 789.611 247.135 789.611H215.785C213.575 789.611 211.785 787.821 211.785 785.612L211.785 785.514ZM211.785 800.9C211.785 798.691 213.575 796.9 215.785 796.9H247.135C249.344 796.9 251.135 798.691 251.135 800.9V810.064C251.135 812.273 249.344 814.064 247.135 814.064H215.785C213.575 814.064 211.785 812.273 211.785 810.064L211.785 800.9Z" fill="currentColor"></path></g></svg>
